Coordinates
version=1
nRows=18
nColumns=63
inDegrees=yes

Units are S.I. units (second, meters, Newtons, ...)
If the header above contains a line with 'inDegrees', this indicates whether rotational values are in degrees (yes) or radians (no).

endheader
time	pelvis_tilt	pelvis_list	pelvis_rotation	pelvis_tx	pelvis_ty	pelvis_tz	hip_flexion_r	hip_adduction_r	hip_rotation_r	knee_angle_r	knee_angle_r_beta	ankle_angle_r	subtalar_angle_r	mtp_angle_r	hip_flexion_l	hip_adduction_l	hip_rotation_l	knee_angle_l	knee_angle_l_beta	ankle_angle_l	subtalar_angle_l	mtp_angle_l	L5_S1_Flex_Ext	L5_S1_Lat_Bending	L5_S1_axial_rotation	L4_L5_Flex_Ext	L4_L5_Lat_Bending	L4_L5_axial_rotation	L3_L4_Flex_Ext	L3_L4_Lat_Bending	L3_L4_axial_rotation	L2_L3_Flex_Ext	L2_L3_Lat_Bending	L2_L3_axial_rotation	L1_L2_Flex_Ext	L1_L2_Lat_Bending	L1_L2_axial_rotation	L1_T12_Flex_Ext	L1_T12_Lat_Bending	L1_T12_axial_rotation	Abs_r3	Abs_r2	Abs_r1	Abs_t1	Abs_t2	neck_flexion	neck_bending	neck_rotation	arm_flex_r	arm_add_r	arm_rot_r	elbow_flex_r	pro_sup_r	wrist_flex_r	wrist_dev_r	arm_flex_l	arm_add_l	arm_rot_l	elbow_flex_l	pro_sup_l	wrist_flex_l	wrist_dev_l
0.000000	-2.807558	-4.547748	86.070507	0.210130	0.943564	0.541240	5.576843	-4.036365	-9.588574	8.841575	0.154315	23.738699	16.617434	0.000000	7.334862	2.725774	3.119816	9.525248	0.166247	21.342676	-8.944568	0.000000	0.044540	-0.277546	1.295345	0.082714	-0.369136	1.376304	0.073174	-0.674825	1.376304	0.050904	-0.674825	1.133427	0.041359	-0.565972	1.052468	0.025450	-0.429919	0.971509	0.318141	-3.139654	7.204323	0.000000	0.000000	22.359239	1.819494	-6.433624	16.776589	-8.515538	50.543078	40.448025	65.146846	2.924000	2.634602	21.552807	-9.871081	72.606351	39.649790	31.214447	0.700477	-10.025383
0.016949	-2.786116	-4.684990	86.107719	0.210208	0.943311	0.541018	5.749878	-4.026677	-10.091217	8.918797	0.155662	23.609014	16.701650	0.000000	7.435681	2.780213	3.670891	9.553936	0.166748	20.825886	-9.948605	0.000000	0.058468	-0.283650	1.361402	0.108581	-0.377254	1.446489	0.096057	-0.689666	1.446489	0.066823	-0.689666	1.191227	0.054294	-0.578419	1.106139	0.033409	-0.439374	1.021051	0.417633	-3.208704	7.571708	0.000000	0.000000	22.755198	1.777266	-7.103109	15.878534	-8.467002	48.172097	41.180151	65.540222	3.230609	4.537058	21.879459	-9.822775	73.541780	39.894997	30.916469	-0.044644	-9.920919
0.033898	-2.783449	-4.795422	86.144762	0.210285	0.943077	0.540836	5.885728	-4.032426	-10.458657	8.976353	0.156667	23.552314	16.736758	0.000000	7.522950	2.832431	4.023298	9.582957	0.167254	20.484736	-10.630258	0.000000	0.069630	-0.291995	1.420909	0.129309	-0.388354	1.509715	0.114394	-0.709957	1.509715	0.079580	-0.709957	1.243295	0.064658	-0.595437	1.154488	0.039786	-0.452301	1.065681	0.497357	-3.303109	7.902667	0.000000	0.000000	23.118291	1.686548	-7.710966	15.124582	-8.442118	46.268414	41.791631	65.714435	3.422346	6.089176	22.161622	-9.765873	74.390512	40.059029	30.834579	-0.746070	-9.919258
0.050847	-2.797058	-4.881127	86.181050	0.210358	0.942862	0.540692	5.987526	-4.051558	-10.704851	9.016168	0.157362	23.560087	16.729201	0.000000	7.597183	2.882356	4.201748	9.612248	0.167765	20.297742	-11.028183	0.000000	0.078300	-0.302181	1.474201	0.145411	-0.401901	1.566339	0.128639	-0.734724	1.566339	0.089489	-0.734724	1.289926	0.072710	-0.616208	1.197788	0.044741	-0.468079	1.105651	0.559290	-3.418337	8.199065	0.000000	0.000000	23.448589	1.554624	-8.260138	14.503149	-8.438156	44.791653	42.291873	65.696341	3.508576	7.317960	22.401939	-9.701922	75.151002	40.150646	30.945505	-1.397045	-10.000198
0.067797	-2.824438	-4.944189	86.215996	0.210428	0.942667	0.540582	6.058400	-4.082020	-10.843755	9.040165	0.157781	23.623824	16.685419	0.000000	7.658897	2.929910	4.230952	9.641748	0.168280	20.243423	-11.181038	0.000000	0.084757	-0.313808	1.521615	0.157402	-0.417364	1.616716	0.139247	-0.762993	1.616716	0.096869	-0.762993	1.331413	0.078705	-0.639917	1.236312	0.048430	-0.486088	1.141211	0.605411	-3.549858	8.462767	0.000000	0.000000	23.746160	1.388782	-8.753564	14.002652	-8.452386	43.701436	42.690286	65.512792	3.498664	8.250418	22.603055	-9.632471	75.821706	40.178609	31.225973	-1.990811	-10.143539
0.084746	-2.863089	-4.986690	86.249014	0.210494	0.942491	0.540503	6.101484	-4.121758	-10.889325	9.050270	0.157957	23.735015	16.611855	0.000000	7.708609	2.975020	4.135624	9.671394	0.168798	20.300298	-11.127481	0.000000	0.089277	-0.326474	1.563486	0.165796	-0.434210	1.661204	0.146673	-0.793789	1.661204	0.102035	-0.793789	1.368050	0.082902	-0.665746	1.270332	0.051013	-0.505708	1.172615	0.637696	-3.693139	8.695641	0.000000	0.000000	24.011073	1.196306	-9.194185	13.611506	-8.482078	42.957384	42.996278	65.190645	3.401974	8.913555	22.767614	-9.559065	76.401077	40.151677	31.652710	-2.520610	-10.329083
0.101695	-2.910508	-5.010713	86.279517	0.210555	0.942335	0.540451	6.119906	-4.168716	-10.855515	9.048408	0.157925	23.885150	16.514950	0.000000	7.746834	3.017611	3.940475	9.701124	0.169317	20.446885	-10.906169	0.000000	0.092136	-0.339779	1.600149	0.171107	-0.451906	1.700159	0.151371	-0.826139	1.700159	0.105303	-0.826139	1.400131	0.085558	-0.692878	1.300121	0.052647	-0.526318	1.200112	0.658122	-3.843649	8.899551	0.000000	0.000000	24.243399	0.984483	-9.584942	13.318127	-8.524501	42.519122	43.219258	64.756753	3.227871	9.334377	22.898260	-9.483254	76.887572	40.078612	32.202443	-2.979684	-10.536628
0.118644	-2.964193	-5.018343	86.306920	0.210610	0.942199	0.540422	6.116799	-4.220842	-10.756283	9.036503	0.157717	24.065719	16.401144	0.000000	7.774089	3.057607	3.670217	9.730875	0.169836	20.661701	-10.555761	0.000000	0.093613	-0.353323	1.631940	0.173848	-0.469919	1.733937	0.153796	-0.859069	1.733937	0.106990	-0.859069	1.427948	0.086929	-0.720496	1.325952	0.053490	-0.547297	1.223955	0.668667	-3.996858	9.076363	0.000000	0.000000	24.443205	0.760599	-9.928775	13.110932	-8.576924	42.346271	43.368633	64.237972	2.985720	9.539892	22.997639	-9.406584	77.279644	39.968172	32.851901	-3.361277	-10.745976
0.135593	-3.021642	-5.011661	86.330635	0.210659	0.942084	0.540414	6.095294	-4.276080	-10.605585	9.016479	0.157367	24.268212	16.276881	0.000000	7.790889	3.094934	3.349562	9.760585	0.170354	20.923265	-10.114914	0.000000	0.093982	-0.366704	1.659195	0.174535	-0.487717	1.762895	0.154404	-0.891605	1.762895	0.107413	-0.891605	1.451796	0.087272	-0.747783	1.348096	0.053702	-0.568025	1.244396	0.671307	-4.148232	9.227944	0.000000	0.000000	24.610563	0.531939	-10.228625	12.978336	-8.636618	42.398454	43.453812	63.661155	2.684885	9.557103	23.068393	-9.330602	77.575749	39.829118	33.577808	-3.658631	-10.936926
0.152542	-3.080353	-4.992752	86.350077	0.210700	0.941989	0.540424	6.058520	-4.332378	-10.417376	8.990262	0.156910	24.484120	16.148601	0.000000	7.797751	3.129515	3.003223	9.790192	0.170871	21.210096	-9.622285	0.000000	0.093522	-0.379523	1.682248	0.173681	-0.504766	1.787389	0.153648	-0.922773	1.787389	0.106887	-0.922773	1.471967	0.086845	-0.773924	1.366827	0.053439	-0.587881	1.261686	0.668021	-4.293242	9.356160	0.000000	0.000000	24.745540	0.305790	-10.487433	12.908757	-8.700852	42.635294	43.484204	63.053157	2.334732	9.413019	23.113168	-9.256856	77.774341	39.670211	34.356893	-3.864988	-11.089279
0.169492	-3.137825	-4.963698	86.364660	0.210734	0.941916	0.540446	6.009610	-4.387680	-10.205612	8.959776	0.156378	24.704933	16.022745	0.000000	7.795191	3.161277	2.655911	9.819633	0.171385	21.500710	-9.116532	0.000000	0.092510	-0.391379	1.701436	0.171799	-0.520534	1.807776	0.151984	-0.951598	1.807776	0.105729	-0.951598	1.488756	0.085904	-0.798100	1.382417	0.052860	-0.606246	1.276077	0.660786	-4.427355	9.462876	0.000000	0.000000	24.848207	0.089436	-10.708139	12.890609	-8.766897	43.016413	43.469216	62.440833	1.944624	9.134645	23.134608	-9.186894	77.873875	39.500210	35.165883	-3.973590	-11.182834
0.186441	-3.208301	-4.945571	86.366592	0.210797	0.941816	0.540458	5.976023	-4.456371	-9.997179	8.938037	0.155998	24.906471	15.923525	0.000000	7.804116	3.205979	2.338569	9.867066	0.172213	21.762763	-8.650402	0.000000	0.092911	-0.404472	1.721530	0.172545	-0.537948	1.829125	0.152643	-0.983433	1.829125	0.106188	-0.983433	1.506339	0.086277	-0.824799	1.398743	0.053089	-0.626527	1.291147	0.663654	-4.575469	9.574632	0.000000	0.000000	24.990825	-0.045115	-10.899424	12.875477	-8.826757	43.420954	43.437620	61.828266	1.597159	8.805004	23.164531	-9.144568	77.930401	39.351743	36.137429	-3.983957	-11.171341
0.203390	-3.263829	-4.910091	86.379358	0.210801	0.941758	0.540478	5.918632	-4.516648	-9.840740	8.910409	0.155516	25.104852	15.864242	0.000000	7.786510	3.254283	2.218687	9.901364	0.172811	21.886134	-8.449276	0.000000	0.093103	-0.413736	1.732815	0.172902	-0.550268	1.841116	0.152960	-1.005957	1.841116	0.106408	-1.005957	1.516213	0.086456	-0.843690	1.407912	0.053199	-0.640876	1.299611	0.665028	-4.680260	9.637399	0.000000	0.000000	25.040648	-0.166611	-11.060203	12.906727	-8.885537	43.905391	43.377473	61.311799	1.190822	8.383262	23.158061	-9.108510	77.780855	39.226874	36.895168	-3.758986	-10.937223
0.220339	-3.301802	-4.856824	86.375218	0.210781	0.941746	0.540510	5.845202	-4.562921	-9.707442	8.882329	0.155026	25.282266	15.834006	0.000000	7.740761	3.297096	2.223729	9.923948	0.173206	21.890785	-8.445916	0.000000	0.092712	-0.418949	1.739811	0.172175	-0.557202	1.848549	0.152316	-1.018632	1.848549	0.105960	-1.018632	1.522335	0.086092	-0.854320	1.413596	0.052975	-0.648951	1.304858	0.662229	-4.739230	9.676307	0.000000	0.000000	25.006542	-0.274432	-11.191898	12.980783	-8.940838	44.456609	43.295007	60.874985	0.733780	7.909533	23.126857	-9.077870	77.472643	39.113260	37.517244	-3.341843	-10.539362
0.237288	-3.319478	-4.810416	86.352873	0.210763	0.941751	0.540568	5.790778	-4.588439	-9.587684	8.869419	0.154801	25.428517	15.811544	0.000000	7.707614	3.322142	2.281700	9.965626	0.173933	21.838385	-8.525507	0.000000	0.094479	-0.420055	1.743408	0.175456	-0.558673	1.852371	0.155219	-1.021321	1.852371	0.107980	-1.021321	1.525482	0.087733	-0.856575	1.416519	0.053985	-0.650665	1.307556	0.674851	-4.751742	9.696310	0.000000	0.000000	24.921737	-0.359070	-11.259559	13.072382	-8.971145	44.991347	43.177908	60.545160	0.281999	7.399183	23.065812	-9.057506	77.002077	39.026598	38.022707	-2.772428	-9.948708
0.254237	-3.313347	-4.748968	86.323449	0.210713	0.941821	0.540606	5.718019	-4.594010	-9.533082	8.849808	0.154458	25.518555	15.846697	0.000000	7.644393	3.331667	2.413782	9.986097	0.174290	21.713147	-8.706378	0.000000	0.094540	-0.417325	1.745896	0.175570	-0.555042	1.855014	0.155319	-1.014683	1.855014	0.108050	-1.014683	1.527659	0.087790	-0.851008	1.418540	0.054020	-0.646436	1.309422	0.675288	-4.720859	9.710148	0.000000	0.000000	24.787378	-0.424883	-11.336687	13.132471	-8.983663	45.406072	43.072768	60.342048	-0.202569	6.923040	23.004376	-9.028575	76.501262	38.939552	38.499942	-2.161427	-9.320295
0.271186	-3.285630	-4.692066	86.275114	0.210665	0.941932	0.540637	5.655444	-4.574863	-9.490563	8.832233	0.154152	25.542174	15.884413	0.000000	7.576622	3.321224	2.583541	9.993922	0.174427	21.552760	-8.950868	0.000000	0.094936	-0.411160	1.752623	0.176305	-0.546842	1.862162	0.155970	-0.999694	1.862162	0.108502	-0.999694	1.533545	0.088157	-0.838437	1.424006	0.054246	-0.636886	1.314468	0.678116	-4.651121	9.747565	0.000000	0.000000	24.640309	-0.469313	-11.396953	13.115396	-8.957427	45.546985	42.981031	60.537862	-0.636340	6.496691	22.972416	-8.990930	76.109560	38.866886	38.722429	-1.570718	-8.699166
0.288136	-3.223852	-4.631273	86.225396	0.210600	0.942094	0.540632	5.583306	-4.519832	-9.492232	8.805343	0.153682	25.485375	15.943536	0.000000	7.490970	3.280502	2.808585	9.981444	0.174209	21.379838	-9.255936	0.000000	0.093826	-0.400559	1.760322	0.174245	-0.532743	1.870342	0.154147	-0.973918	1.870342	0.107234	-0.973918	1.540282	0.087127	-0.816819	1.430262	0.053612	-0.620465	1.320242	0.670193	-4.531198	9.790383	0.000000	0.000000	24.498946	-0.505692	-11.466180	13.035313	-8.920102	45.501310	42.917046	60.980906	-1.017175	6.106697	22.914272	-8.924135	75.642228	38.779587	39.016435	-1.001454	-8.084548
